G04*
G04 #@! TF.GenerationSoftware,Altium Limited,Altium Designer,25.8.1 (18)*
G04*
G04 Layer_Color=16711935*
%FSLAX25Y25*%
%MOIN*%
G70*
G04*
G04 #@! TF.SameCoordinates,986AEA9A-82CC-4B94-BCCE-00DFB928EDA5*
G04*
G04*
G04 #@! TF.FilePolarity,Negative*
G04*
G01*
G75*
%ADD35R,0.06693X0.06693*%
%ADD36C,0.06102*%
%ADD37R,0.06063X0.06063*%
%ADD38C,0.06693*%
%ADD39R,0.08465X0.08465*%
%ADD40R,0.06102X0.06102*%
G04:AMPARAMS|DCode=41|XSize=43.31mil|YSize=102.36mil|CornerRadius=21.65mil|HoleSize=0mil|Usage=FLASHONLY|Rotation=180.000|XOffset=0mil|YOffset=0mil|HoleType=Round|Shape=RoundedRectangle|*
%AMROUNDEDRECTD41*
21,1,0.04331,0.05906,0,0,180.0*
21,1,0.00000,0.10236,0,0,180.0*
1,1,0.04331,0.00000,0.02953*
1,1,0.04331,0.00000,0.02953*
1,1,0.04331,0.00000,-0.02953*
1,1,0.04331,0.00000,-0.02953*
%
%ADD41ROUNDEDRECTD41*%
G04:AMPARAMS|DCode=42|XSize=43.31mil|YSize=82.68mil|CornerRadius=21.65mil|HoleSize=0mil|Usage=FLASHONLY|Rotation=180.000|XOffset=0mil|YOffset=0mil|HoleType=Round|Shape=RoundedRectangle|*
%AMROUNDEDRECTD42*
21,1,0.04331,0.03937,0,0,180.0*
21,1,0.00000,0.08268,0,0,180.0*
1,1,0.04331,0.00000,0.01968*
1,1,0.04331,0.00000,0.01968*
1,1,0.04331,0.00000,-0.01968*
1,1,0.04331,0.00000,-0.01968*
%
%ADD42ROUNDEDRECTD42*%
%ADD43C,0.06063*%
%ADD44C,0.08465*%
G04:AMPARAMS|DCode=45|XSize=78.74mil|YSize=161.42mil|CornerRadius=39.37mil|HoleSize=0mil|Usage=FLASHONLY|Rotation=0.000|XOffset=0mil|YOffset=0mil|HoleType=Round|Shape=RoundedRectangle|*
%AMROUNDEDRECTD45*
21,1,0.07874,0.08268,0,0,0.0*
21,1,0.00000,0.16142,0,0,0.0*
1,1,0.07874,0.00000,-0.04134*
1,1,0.07874,0.00000,-0.04134*
1,1,0.07874,0.00000,0.04134*
1,1,0.07874,0.00000,0.04134*
%
%ADD45ROUNDEDRECTD45*%
%ADD46C,0.02591*%
%ADD47C,0.02953*%
D35*
X269270Y104211D02*
D03*
X245770Y161211D02*
D03*
D36*
X231589Y86242D02*
D03*
Y29155D02*
D03*
X221747D02*
D03*
X211904Y86242D02*
D03*
D37*
X203628Y379006D02*
D03*
D38*
X245770Y151211D02*
D03*
X269270Y94211D02*
D03*
X245770Y141211D02*
D03*
X269270Y84211D02*
D03*
Y74211D02*
D03*
X245770Y131211D02*
D03*
D39*
X111827Y68880D02*
D03*
X22270D02*
D03*
Y347711D02*
D03*
X111547Y259673D02*
D03*
X111827Y347711D02*
D03*
X21990Y259673D02*
D03*
X111547Y162689D02*
D03*
X21990D02*
D03*
D40*
X211904Y29155D02*
D03*
D41*
X277778Y383085D02*
D03*
X243762D02*
D03*
D42*
X277778Y361983D02*
D03*
X243762D02*
D03*
D43*
X185912Y353416D02*
D03*
X203628D02*
D03*
X185912Y379006D02*
D03*
D44*
X136827Y357711D02*
D03*
X47270D02*
D03*
X136547Y269673D02*
D03*
Y172689D02*
D03*
X136827Y78880D02*
D03*
X46990Y269673D02*
D03*
Y172689D02*
D03*
X47270Y78880D02*
D03*
D45*
X199306Y58683D02*
D03*
X244188D02*
D03*
D46*
X263628Y363354D02*
D03*
X259770Y343211D02*
D03*
D47*
X275170Y82211D02*
D03*
X192370Y217111D02*
D03*
X170270Y107011D02*
D03*
X285270Y180711D02*
D03*
X130470Y84411D02*
D03*
X194370Y320711D02*
D03*
X289270Y274955D02*
D03*
X260070Y225611D02*
D03*
X194770Y258811D02*
D03*
X196670Y308211D02*
D03*
X162102Y274643D02*
D03*
X180470Y207611D02*
D03*
X278114Y312455D02*
D03*
X244970Y279311D02*
D03*
X164770Y205111D02*
D03*
X282870Y237811D02*
D03*
X260070Y213611D02*
D03*
X236370Y237311D02*
D03*
X181570Y172689D02*
D03*
X175093Y365617D02*
D03*
X163535Y377176D02*
D03*
X34770Y97411D02*
D03*
X133470Y114311D02*
D03*
X250970Y350160D02*
D03*
X260770Y355311D02*
D03*
X254864Y357311D02*
D03*
X266676D02*
D03*
X280170Y200311D02*
D03*
X211970Y160711D02*
D03*
M02*
