G04*
G04 #@! TF.GenerationSoftware,Altium Limited,Altium Designer,25.8.1 (18)*
G04*
G04 Layer_Color=8421504*
%FSLAX25Y25*%
%MOIN*%
G70*
G04*
G04 #@! TF.SameCoordinates,986AEA9A-82CC-4B94-BCCE-00DFB928EDA5*
G04*
G04*
G04 #@! TF.FilePolarity,Positive*
G04*
G01*
G75*
%ADD16R,0.03543X0.03543*%
%ADD17R,0.05906X0.03543*%
%ADD18R,0.03543X0.05906*%
%ADD19R,0.03700X0.02787*%
%ADD20R,0.04355X0.02977*%
%ADD21R,0.03394X0.03377*%
%ADD22R,0.01181X0.02756*%
G04:AMPARAMS|DCode=23|XSize=15.75mil|YSize=47.24mil|CornerRadius=1.97mil|HoleSize=0mil|Usage=FLASHONLY|Rotation=180.000|XOffset=0mil|YOffset=0mil|HoleType=Round|Shape=RoundedRectangle|*
%AMROUNDEDRECTD23*
21,1,0.01575,0.04331,0,0,180.0*
21,1,0.01181,0.04724,0,0,180.0*
1,1,0.00394,-0.00591,0.02165*
1,1,0.00394,0.00591,0.02165*
1,1,0.00394,0.00591,-0.02165*
1,1,0.00394,-0.00591,-0.02165*
%
%ADD23ROUNDEDRECTD23*%
%ADD24R,0.03937X0.02756*%
%ADD25R,0.05315X0.03740*%
G04:AMPARAMS|DCode=26|XSize=67.21mil|YSize=24.25mil|CornerRadius=12.12mil|HoleSize=0mil|Usage=FLASHONLY|Rotation=0.000|XOffset=0mil|YOffset=0mil|HoleType=Round|Shape=RoundedRectangle|*
%AMROUNDEDRECTD26*
21,1,0.06721,0.00000,0,0,0.0*
21,1,0.04296,0.02425,0,0,0.0*
1,1,0.02425,0.02148,0.00000*
1,1,0.02425,-0.02148,0.00000*
1,1,0.02425,-0.02148,0.00000*
1,1,0.02425,0.02148,0.00000*
%
%ADD26ROUNDEDRECTD26*%
%ADD27R,0.04749X0.03765*%
%ADD28R,0.01181X0.02000*%
%ADD29R,0.06721X0.02425*%
D16*
X221526Y250549D02*
D03*
X227038D02*
D03*
X232549D02*
D03*
X221526Y245037D02*
D03*
X227038D02*
D03*
X232549D02*
D03*
X221526Y239525D02*
D03*
X227038D02*
D03*
X232549D02*
D03*
D17*
X186683Y214643D02*
D03*
X255581D02*
D03*
X186683Y259643D02*
D03*
X255581Y274643D02*
D03*
X186683Y244643D02*
D03*
Y264643D02*
D03*
Y254643D02*
D03*
Y274643D02*
D03*
X255581Y234643D02*
D03*
Y219643D02*
D03*
X186683Y249643D02*
D03*
Y269643D02*
D03*
X255581Y224643D02*
D03*
Y229643D02*
D03*
Y279643D02*
D03*
Y239643D02*
D03*
Y244643D02*
D03*
Y249643D02*
D03*
Y254643D02*
D03*
Y259643D02*
D03*
Y264643D02*
D03*
Y269643D02*
D03*
X186683Y279643D02*
D03*
Y239643D02*
D03*
Y234643D02*
D03*
Y229643D02*
D03*
Y224643D02*
D03*
Y219643D02*
D03*
X138916Y374215D02*
D03*
X46416D02*
D03*
X136192Y287274D02*
D03*
Y192770D02*
D03*
Y98054D02*
D03*
X46416Y287274D02*
D03*
Y190715D02*
D03*
Y97071D02*
D03*
X138916Y387207D02*
D03*
X119624Y374215D02*
D03*
Y387207D02*
D03*
X46416D02*
D03*
Y203707D02*
D03*
X27124Y190715D02*
D03*
Y203707D02*
D03*
X136192Y205762D02*
D03*
X116901Y192770D02*
D03*
Y205762D02*
D03*
Y111046D02*
D03*
Y98054D02*
D03*
X136192Y111046D02*
D03*
X116901Y300266D02*
D03*
Y287274D02*
D03*
X136192Y300266D02*
D03*
X27124Y110063D02*
D03*
Y97071D02*
D03*
X46416Y110063D02*
D03*
X27124Y300266D02*
D03*
Y287274D02*
D03*
X46416Y300266D02*
D03*
X27124Y387207D02*
D03*
Y374215D02*
D03*
D18*
X198632Y284564D02*
D03*
X243632D02*
D03*
X223632D02*
D03*
X248632D02*
D03*
X238632D02*
D03*
X233632D02*
D03*
X228632D02*
D03*
X218632D02*
D03*
X213632D02*
D03*
X208632D02*
D03*
X203632D02*
D03*
X193632D02*
D03*
D19*
X283770Y269467D02*
D03*
Y274955D02*
D03*
X287770Y312455D02*
D03*
Y306967D02*
D03*
D20*
X283270Y241853D02*
D03*
Y234570D02*
D03*
D21*
X282770Y209082D02*
D03*
X230835Y151340D02*
D03*
X282770Y204340D02*
D03*
X230835Y156082D02*
D03*
D22*
X262739Y360368D02*
D03*
X259786Y365487D02*
D03*
X261754D02*
D03*
X258802Y360368D02*
D03*
X272581D02*
D03*
X248959D02*
D03*
X257817Y365487D02*
D03*
X264707Y360368D02*
D03*
X265691Y365487D02*
D03*
X255849D02*
D03*
X266676Y360368D02*
D03*
X254864D02*
D03*
X269628Y365487D02*
D03*
X267660D02*
D03*
X253880D02*
D03*
X251912D02*
D03*
X250927Y360368D02*
D03*
X252896D02*
D03*
X256833D02*
D03*
X268644D02*
D03*
X270613D02*
D03*
D23*
X177652Y312491D02*
D03*
X190447D02*
D03*
X187888Y334932D02*
D03*
X185329D02*
D03*
X182770Y312491D02*
D03*
X185329D02*
D03*
X180211Y334932D02*
D03*
X177652D02*
D03*
X175093Y312491D02*
D03*
Y334932D02*
D03*
X180211Y312491D02*
D03*
X187888D02*
D03*
X182770Y334932D02*
D03*
X190447D02*
D03*
D24*
X272975Y365487D02*
D03*
X248565D02*
D03*
D25*
X287770Y358262D02*
D03*
X236270Y356262D02*
D03*
Y350160D02*
D03*
X287770Y352160D02*
D03*
D26*
X202544Y153711D02*
D03*
Y149971D02*
D03*
X211997D02*
D03*
Y157451D02*
D03*
D27*
X151770Y377176D02*
D03*
Y289735D02*
D03*
X59770Y376676D02*
D03*
Y286676D02*
D03*
X152270Y195676D02*
D03*
X151676Y100515D02*
D03*
X61270Y193676D02*
D03*
X59770Y99532D02*
D03*
X151770Y385246D02*
D03*
X152270Y203747D02*
D03*
X59770Y107603D02*
D03*
X151676Y108586D02*
D03*
X59770Y294746D02*
D03*
Y384747D02*
D03*
X61270Y201747D02*
D03*
X151770Y297806D02*
D03*
D28*
X263723Y365987D02*
D03*
D29*
X202544Y157451D02*
D03*
M02*
