M48
;Layer_Color=9474304
;FILE_FORMAT=2:5
INCH
;TYPE=PLATED
T01F00S00C0.00984
T02F00S00C0.01181
T03F00S00C0.01200
T05F00S00C0.03898
T06F00S00C0.03937
T07F00S00C0.04016
T09F00S00C0.05900
%
T01
X0467512Y0343314
X0464756Y0346070
X0467512Y0348826
X0464756Y0351581
X0467512Y0354337
X0473023
Y0348826
X0470268Y0351581
Y0346070
X0473023Y0343314
X0475779Y0346070
Y0351581
T02
X0518400Y0186000
X0528500Y0284500
X0523400Y0304100
X0423700Y0311400
X0408000Y0308900
X0424800Y0276478
X0455200Y0264500
X0413500Y0210800
X0376700Y0218100
X0373700Y0188200
X0278000Y0201200
X0435600Y0320900
X0438000Y0362600
X0405332Y0378432
X0439900Y0412000
X0437600Y0424500
X0494200Y0453949
X0498094Y0461100
X0504000Y0459100
X0509906Y0461100
X0521344Y0416244
X0532500Y0378744
X0526100Y0341600
X0503300Y0329400
Y0317400
X0479600Y0341100
X0488200Y0383100
X0418323Y0469406
X0406765Y0480965
T03
X0503000Y0447000
X0506858Y0467143
T05
X0429142Y0457205
X0446858
Y0482795
X0429142
T06
X0455134Y0132944
X0464977
X0474819
Y0190031
X0455134
T07
X0512500Y0178000
Y0188000
Y0198000
Y0208000
X0489000Y0235000
Y0245000
Y0255000
Y0265000
T09
X0355057Y0172669
X0380057Y0182669
X0379777Y0276478
X0354777Y0266478
X0290220Y0276478
X0265220Y0266478
X0265500Y0172669
X0290500Y0182669
X0290220Y0373462
X0265220Y0363462
X0265500Y0451500
X0290500Y0461500
X0355057Y0451500
X0380057Y0461500
X0379777Y0373462
X0354777Y0363462
M30
