M48
;Layer_Color=9474304
;FILE_FORMAT=2:5
INCH
;TYPE=NON_PLATED
T10F00S00C0.06700
T11F00S00C0.15700
%
T10
X0350057Y0162669
X0390057
X0389777Y0256478
X0349777
X0300220
X0260220
X0260500Y0162669
X0300500
X0300220Y0353462
X0260220
X0260500Y0441500
X0300500
X0350057
X0390057
X0389777Y0353462
X0349777
X0531500Y0489000
X0258500
T11
X0258500Y0117500
X0522500
X0370057Y0162669
X0369777Y0256478
X0280220
X0280500Y0162669
X0280220Y0353462
X0280500Y0441500
X0370057
X0369777Y0353462
M30
